<?xml version="1.0" standalone="no"?>
<!DOCTYPE svg PUBLIC "-//W3C//DTD SVG 20010904//EN"
 "http://www.w3.org/TR/2001/REC-SVG-20010904/DTD/svg10.dtd">
<svg version="1.0" xmlns="http://www.w3.org/2000/svg"
 width="700.000000pt" height="700.000000pt" viewBox="0 0 700.000000 700.000000"
 preserveAspectRatio="xMidYMid meet">
<metadata>
Created by potrace 1.11, written by Peter Selinger 2001-2013
</metadata>
<g transform="translate(0.000000,700.000000) scale(0.100000,-0.100000)"
fill="#000000" stroke="none">
<path d="M5220 6083 c-9 -7 -21 -9 -25 -5 -5 4 -5 2 -1 -5 3 -6 2 -14 -4 -18
-5 -3 -10 -1 -10 5 0 6 -5 8 -11 5 -6 -4 -8 -9 -5 -13 3 -3 -2 -11 -11 -18
-15 -10 -22 -9 -45 7 -19 14 -35 18 -55 13 -32 -8 -105 -45 -114 -58 -4 -5
-13 -6 -20 -4 -8 3 -18 0 -24 -6 -17 -18 -45 -90 -41 -106 6 -30 24 -66 38
-77 16 -14 40 -2 36 18 -2 8 4 13 14 13 10 -1 14 4 11 12 -3 8 1 14 11 14 17
0 56 34 56 48 0 21 23 30 46 20 20 -9 24 -19 24 -55 0 -27 -4 -42 -10 -38 -5
3 -10 -3 -10 -14 0 -19 -15 -26 -42 -22 -5 0 -8 -3 -8 -8 0 -5 -9 -12 -19 -16
-23 -7 -57 -103 -48 -135 3 -12 1 -36 -5 -53 -13 -39 -102 -123 -138 -130 -63
-13 -210 22 -247 59 -12 12 -31 25 -42 29 -12 3 -20 10 -18 14 1 4 -15 24 -36
43 -28 27 -40 33 -44 23 -4 -12 -9 -12 -29 2 -14 9 -27 13 -31 10 -7 -8 -33
18 -33 32 0 6 -4 11 -10 11 -5 0 -10 8 -9 18 0 14 3 13 16 -5 8 -13 21 -23 29
-23 7 0 17 -8 23 -17 8 -14 14 -16 28 -7 27 17 22 55 -9 85 -17 16 -26 33 -23
41 4 9 -1 22 -9 31 -9 9 -16 19 -16 23 0 5 -15 21 -32 37 -25 21 -39 26 -58
22 -14 -4 -33 -7 -44 -8 -28 -2 -86 -61 -92 -92 -3 -16 -7 -32 -10 -36 -5 -8
23 -39 36 -39 5 0 7 9 5 19 -3 14 2 19 15 18 11 -1 22 -7 24 -14 3 -7 12 -10
21 -7 10 4 15 0 15 -15 0 -12 5 -21 10 -21 15 0 12 -33 -4 -55 -7 -11 -24 -20
-37 -20 -13 -1 -36 -7 -52 -15 -24 -12 -29 -11 -41 6 -8 10 -12 22 -10 26 3 5
-2 8 -11 8 -11 0 -15 5 -11 15 6 17 -11 55 -32 68 -7 5 -10 12 -7 18 4 5 1 9
-4 9 -18 0 -26 -5 -23 -13 1 -4 -7 -2 -17 5 -11 7 -18 15 -16 19 3 4 -8 9 -24
12 -18 4 -36 18 -47 37 -19 31 -54 41 -54 15 0 -8 5 -15 10 -15 6 0 10 -6 10
-14 0 -8 10 -23 23 -33 23 -20 29 -33 30 -73 1 -29 -27 -86 -45 -93 -7 -3 2
-4 21 -3 20 0 36 -4 38 -12 3 -8 -1 -10 -13 -5 -13 5 -15 3 -9 -7 5 -8 4 -11
-3 -7 -21 14 -40 -5 -45 -44 -5 -40 -14 -51 -92 -113 -20 -16 -34 -35 -31 -42
3 -8 1 -14 -5 -14 -6 0 -6 -6 0 -19 13 -23 -9 -46 -54 -57 -16 -4 -33 -11 -36
-16 -4 -6 -27 -6 -58 0 -33 6 -66 6 -90 0 -29 -7 -47 -6 -76 6 -47 20 -71 20
-125 1 -37 -13 -46 -13 -59 -1 -9 7 -31 16 -50 20 -44 8 -121 46 -121 60 0 6
-5 4 -11 -4 -8 -11 -12 -12 -16 -2 -2 6 -9 10 -13 7 -12 -8 -59 34 -76 68 -8
15 -19 25 -24 22 -6 -4 -10 -1 -10 4 0 6 -6 11 -14 11 -19 0 -29 17 -19 33 13
20 12 37 -2 37 -9 0 -13 10 -11 26 6 53 -13 113 -44 144 -18 17 -36 27 -45 24
-8 -4 -15 -1 -15 4 0 7 -43 11 -122 10 -124 -1 -178 6 -178 24 0 5 -4 7 -8 4
-5 -3 -16 4 -25 14 -35 41 -141 48 -242 15 -22 -7 -66 -16 -98 -20 -37 -4 -66
-14 -78 -26 -10 -10 -21 -19 -24 -19 -3 0 -12 -3 -20 -6 -23 -9 -65 5 -65 22
0 19 -51 41 -116 49 -48 7 -51 5 -69 -21 -10 -16 -26 -35 -34 -42 -37 -30 -92
-62 -106 -62 -9 0 -14 -4 -10 -9 7 -12 -30 -24 -52 -17 -19 6 -44 -5 -46 -20
-1 -5 -7 -8 -14 -6 -7 2 -13 -1 -13 -7 0 -5 -13 -8 -30 -6 -21 3 -33 -1 -40
-14 -6 -12 -17 -17 -33 -14 -17 3 -32 -3 -50 -20 -13 -14 -22 -29 -18 -32 3
-4 -1 -5 -9 -3 -8 2 -20 10 -27 18 -7 8 -13 12 -13 8 0 -4 -12 -3 -27 3 -20 7
-28 6 -35 -3 -5 -8 -8 -9 -8 -2 0 7 -11 15 -25 18 -14 4 -25 11 -25 16 0 6
-12 10 -27 10 -22 0 -25 2 -13 10 11 7 8 10 -15 10 -17 0 -37 -6 -44 -12 -11
-10 -13 -10 -7 0 11 19 -9 14 -29 -8 -10 -11 -32 -24 -49 -28 -21 -6 -30 -14
-28 -25 2 -10 -1 -17 -7 -17 -5 0 -8 -8 -6 -17 2 -10 4 -26 4 -36 1 -10 6 -15
11 -12 6 3 10 2 10 -3 0 -5 -11 -15 -25 -22 -14 -7 -25 -20 -25 -27 0 -8 -4
-12 -8 -9 -5 3 -9 0 -9 -7 -1 -33 -15 -92 -24 -104 -9 -10 -8 -13 2 -13 10 -1
10 -3 -2 -10 -9 -5 -16 -23 -17 -40 0 -17 3 -28 7 -25 12 7 51 -100 46 -125
-9 -45 -17 -61 -38 -71 -52 -22 -101 -65 -92 -79 4 -6 3 -16 -2 -22 -8 -14 -9
-19 -11 -60 -2 -26 -30 -45 -59 -40 -7 2 -23 -6 -34 -17 -12 -11 -25 -18 -29
-16 -5 3 -11 -2 -14 -11 -3 -8 -10 -13 -15 -10 -5 3 -12 -1 -15 -9 -9 -25 23
-30 87 -12 68 18 97 10 97 -26 -1 -21 -2 -21 -24 7 -13 15 -26 24 -30 18 -3
-5 -19 -12 -36 -15 -16 -4 -30 -13 -30 -21 0 -18 -27 -29 -34 -13 -2 7 -5 4
-5 -6 -1 -15 -6 -18 -33 -12 -25 5 -29 4 -18 -4 14 -10 9 -13 -16 -10 -15 1
-34 -57 -28 -83 3 -18 1 -35 -8 -45 -10 -12 -10 -17 -1 -20 7 -2 9 -11 6 -19
-3 -7 -9 -12 -13 -9 -11 7 -4 -49 9 -74 15 -27 14 -34 -4 -27 -24 9 -29 -36
-7 -75 10 -19 21 -60 25 -91 3 -37 12 -63 25 -76 19 -19 32 -19 32 0 0 5 -4 6
-10 3 -5 -3 -10 -2 -10 4 0 5 4 12 9 16 12 7 23 -28 15 -49 -4 -10 -1 -16 9
-16 13 0 14 -5 6 -29 -8 -23 -6 -35 9 -62 11 -19 25 -33 31 -31 6 1 30 -7 52
-19 23 -11 38 -16 35 -10 -4 5 7 18 24 27 16 10 30 24 30 30 0 15 28 26 42 17
7 -4 8 -1 4 6 -10 16 69 90 92 86 24 -4 51 13 81 48 14 17 32 36 39 41 7 6 21
19 29 28 9 9 20 15 25 12 13 -8 9 4 -8 31 -9 14 -12 25 -6 25 6 0 13 -8 15
-17 4 -16 5 -16 6 -1 1 11 7 15 24 11 16 -3 18 -2 9 5 -11 7 -10 10 3 16 9 3
22 3 27 -1 6 -3 8 -1 5 4 -4 6 5 13 20 16 19 3 31 -1 43 -15 15 -19 15 -23 -2
-56 -10 -20 -22 -40 -27 -45 -12 -12 -3 -37 13 -37 7 0 13 -6 14 -12 3 -36 9
-69 15 -74 3 -4 3 -19 0 -35 -3 -17 0 -35 7 -44 7 -8 12 -37 12 -65 0 -28 4
-52 8 -55 4 -2 5 -23 3 -46 -4 -29 -2 -39 6 -35 7 4 11 -1 11 -13 0 -12 -5
-21 -11 -21 -5 0 -8 -4 -4 -9 3 -5 1 -12 -5 -16 -5 -3 -10 -12 -10 -18 0 -7 7
-4 14 6 13 17 15 17 41 -7 47 -44 66 -90 56 -136 -5 -21 -16 -46 -24 -54 -17
-18 -17 -31 3 -66 8 -14 13 -38 11 -54 -2 -16 2 -32 9 -36 17 -10 25 -111 20
-254 0 -21 6 -49 15 -62 12 -18 12 -22 1 -18 -18 7 -31 -27 -14 -38 7 -4 9 -8
3 -8 -5 0 -3 -5 5 -11 12 -8 11 -9 -5 -7 -13 2 -20 -2 -19 -13 1 -12 -5 -16
-20 -14 -28 4 -56 16 -56 24 0 4 -14 8 -31 9 -21 2 -28 -1 -23 -9 4 -8 3 -9
-5 -5 -6 4 -19 2 -27 -5 -11 -9 -18 -9 -26 -1 -7 7 -18 12 -25 12 -24 0 -116
107 -118 138 -2 26 -69 88 -121 112 -22 10 -47 26 -54 36 -20 23 -58 36 -105
36 -55 0 -87 -11 -81 -29 3 -8 1 -11 -4 -8 -6 3 -10 2 -10 -4 0 -5 6 -12 12
-14 8 -3 5 -6 -6 -6 -15 -1 -17 -6 -11 -29 15 -59 13 -69 -12 -66 -12 1 -23
-2 -23 -7 0 -9 16 -13 34 -10 5 1 4 -5 -3 -13 -8 -9 -14 -31 -15 -48 -1 -26
-6 -34 -24 -36 -12 -2 -22 -7 -22 -12 0 -5 -9 -12 -20 -15 -11 -3 -20 -12 -20
-18 0 -7 -9 -18 -20 -25 -11 -7 -20 -18 -20 -25 0 -7 -12 -21 -26 -32 -30 -23
-51 -59 -55 -100 -2 -16 -9 -36 -16 -42 -13 -14 -24 -17 -21 -5 1 4 -1 17 -6
29 -4 13 -2 31 4 44 8 15 9 19 1 15 -6 -4 -11 -2 -11 3 0 6 4 11 10 11 5 0 7
7 3 15 -4 12 -9 10 -20 -11 -7 -15 -11 -34 -8 -41 2 -8 -1 -21 -8 -29 -21 -26
-47 -49 -57 -50 -6 -1 -14 -2 -20 -3 -5 0 -10 -5 -10 -11 0 -5 3 -9 8 -9 22 4
24 -3 5 -16 -20 -14 -41 -75 -35 -98 1 -5 -2 -6 -8 -2 -6 3 -7 11 -4 17 5 7 2
8 -5 4 -7 -5 -11 -20 -9 -34 3 -23 -1 -27 -19 -25 -13 2 -22 -1 -22 -5 3 -20
-3 -32 -16 -32 -9 0 -27 -12 -41 -27 -21 -23 -23 -24 -14 -6 8 18 8 22 -4 17
-19 -7 -30 -38 -16 -42 7 -3 0 -16 -16 -33 -34 -36 -15 -38 30 -4 42 32 76 35
46 5 -21 -21 -27 -74 -11 -99 6 -9 4 -22 -5 -36 -8 -12 -12 -36 -9 -58 l5 -37
-25 22 c-14 12 -25 28 -25 35 0 8 -4 11 -10 8 -12 -8 -12 -8 -1 32 6 20 6 35
0 38 -5 4 -9 18 -9 32 0 22 -2 24 -16 12 -13 -11 -15 -36 -12 -172 3 -151 4
-160 25 -177 13 -10 23 -23 23 -29 0 -6 4 -11 9 -11 5 0 13 -10 17 -22 4 -13
17 -34 31 -47 13 -13 22 -29 20 -35 -3 -6 2 -27 11 -46 8 -19 16 -54 17 -77 2
-34 -2 -43 -21 -54 -13 -7 -24 -18 -24 -26 0 -7 -11 -13 -27 -13 -14 0 -23 -3
-20 -7 4 -3 0 -11 -9 -17 -8 -6 -17 -29 -20 -51 -3 -22 -10 -43 -17 -47 -9 -6
-9 -10 1 -20 16 -16 16 -69 0 -66 -9 2 -14 -16 -16 -61 -3 -58 -1 -63 16 -59
28 8 43 -9 82 -89 29 -61 41 -75 72 -87 20 -9 39 -20 43 -26 3 -5 15 -10 26
-10 12 0 35 -15 53 -32 17 -18 43 -39 56 -46 30 -15 91 -22 105 -12 22 16 106
32 138 26 39 -7 156 -19 177 -18 8 0 27 4 43 8 18 4 27 2 27 -5 0 -7 4 -10 9
-7 5 3 22 1 39 -5 24 -8 36 -7 63 10 24 15 36 17 46 9 9 -7 17 -7 26 -1 6 6
24 13 39 17 16 3 32 18 40 34 7 15 18 27 25 27 6 0 14 3 17 6 3 3 26 3 50 -1
30 -4 49 -2 62 7 20 14 38 17 30 5 -3 -5 8 -6 25 -4 16 2 35 0 42 -6 6 -5 21
-8 32 -5 11 2 43 5 70 6 73 3 77 8 70 80 -10 98 -13 115 -20 127 -4 6 5 29 19
50 14 22 26 48 26 59 0 22 36 61 57 61 8 0 13 11 13 28 0 21 -2 24 -10 12 -5
-8 -10 -11 -10 -7 0 5 8 20 19 33 17 22 19 23 24 5 2 -11 0 -25 -7 -32 -8 -10
-7 -10 6 0 10 7 15 17 12 22 -3 5 1 9 9 9 8 0 18 7 21 16 8 21 8 26 -2 20 -4
-3 -7 9 -6 27 1 17 6 33 11 34 5 2 7 18 5 36 -4 27 -3 30 10 20 11 -10 17 -10
27 0 9 9 13 7 17 -11 4 -12 10 -22 15 -22 7 0 5 -27 -6 -78 -4 -14 -10 -20
-17 -16 -7 5 -9 2 -5 -8 3 -9 0 -21 -6 -27 -9 -9 -8 -14 3 -21 11 -7 12 -10 2
-10 -10 0 -9 -5 3 -17 14 -13 18 -14 25 -2 5 7 12 10 16 6 4 -4 12 1 19 10 15
20 50 10 41 -12 -8 -21 14 -54 31 -48 14 6 37 -15 60 -53 6 -10 16 -18 23 -16
6 1 9 -2 6 -7 -10 -15 10 -22 22 -8 5 6 13 28 17 47 10 48 46 108 67 114 10 2
18 11 18 20 0 9 5 16 11 16 5 0 7 5 3 12 -5 7 -3 8 5 4 7 -5 10 -15 6 -24 -3
-8 3 -23 15 -34 11 -10 20 -30 20 -44 0 -16 8 -28 24 -36 32 -14 37 -30 21
-62 -8 -14 -10 -26 -6 -26 5 0 6 -10 4 -23 -3 -16 4 -34 22 -55 14 -17 24 -35
21 -40 -3 -5 12 -18 34 -30 31 -16 41 -18 50 -8 11 15 60 12 90 -4 28 -15 63
-12 115 10 51 22 99 25 140 10 17 -7 40 -6 68 0 23 6 47 12 52 13 6 2 23 15
38 31 19 19 35 26 48 23 12 -3 28 2 38 11 24 23 58 42 75 42 8 0 17 7 20 16 4
9 13 14 22 10 8 -3 12 -2 9 3 -3 5 4 12 14 16 11 3 18 11 16 18 -3 7 10 22 28
33 36 24 104 25 119 2 6 -10 8 -10 8 -1 0 9 7 10 23 4 14 -6 30 -6 38 0 8 5
21 9 29 9 13 0 13 -1 0 -10 -9 -6 -10 -10 -3 -10 6 0 15 5 18 10 3 6 11 10 16
10 6 0 7 -5 3 -11 -3 -6 5 -4 19 5 17 12 24 24 21 39 -4 20 -4 20 6 -2 8 -19
13 -22 22 -13 7 7 23 12 37 12 29 0 65 26 74 52 7 20 47 13 47 -8 0 -8 10 -15
23 -16 12 -1 36 -3 52 -4 17 -2 50 -5 75 -7 25 -2 51 -6 57 -10 6 -4 15 -2 19
4 5 8 3 9 -6 4 -9 -5 -11 -4 -6 4 4 6 12 9 17 5 5 -3 7 -9 4 -14 -3 -4 4 -10
15 -13 21 -5 50 21 50 46 0 24 21 65 37 71 7 3 23 -6 35 -19 12 -14 25 -25 30
-25 5 0 18 -9 30 -20 12 -11 19 -20 15 -20 -4 0 3 -24 14 -52 25 -64 31 -91
18 -83 -5 4 -9 1 -9 -5 0 -6 -4 -9 -9 -5 -17 10 -21 -13 -5 -29 21 -21 41 -20
56 3 6 10 17 17 24 14 7 -3 10 4 7 19 -3 17 2 26 21 34 16 7 28 8 34 2 6 -6
19 -4 35 7 15 9 31 14 37 10 5 -3 10 -1 10 4 0 6 16 11 35 11 19 0 35 -5 35
-11 0 -7 5 -8 13 -3 6 5 26 9 42 9 17 0 36 7 43 15 11 13 12 13 10 0 -3 -14 8
-16 82 -11 8 1 29 13 45 27 17 14 40 34 53 45 12 10 25 19 30 19 4 0 18 9 32
20 14 11 34 20 45 20 11 0 43 26 74 60 30 33 58 57 63 54 4 -3 6 -9 3 -14 -3
-4 4 -10 14 -13 15 -3 18 -1 14 11 -4 10 -2 13 5 8 6 -4 19 1 29 11 10 10 37
25 61 32 39 13 43 13 57 -5 12 -16 17 -17 34 -6 12 6 27 12 36 12 8 0 17 11
21 24 4 17 11 23 22 19 10 -4 13 -2 8 5 -4 7 13 -2 38 -19 25 -17 46 -35 46
-40 0 -5 6 -9 14 -9 7 0 17 -14 22 -31 5 -18 16 -35 24 -39 8 -4 41 -20 73
-35 31 -15 57 -31 57 -36 0 -5 14 -9 30 -9 35 0 93 -27 86 -39 -9 -14 38 -30
57 -20 12 7 29 -1 69 -31 29 -22 57 -40 61 -40 5 0 6 -4 3 -8 -3 -5 20 -6 50
-4 30 2 60 0 67 -6 22 -19 83 -25 98 -10 28 28 51 35 86 28 36 -9 168 -8 192
0 7 3 25 15 39 27 13 13 28 20 33 18 4 -3 11 0 16 7 22 35 50 49 78 38 23 -9
26 -8 21 5 -3 8 -1 15 4 15 6 0 10 -4 10 -10 0 -5 7 -7 15 -4 8 4 13 10 10 14
-3 5 1 11 7 13 10 4 10 6 1 6 -22 2 -14 29 17 64 17 19 30 44 30 56 0 12 7 24
15 27 12 5 12 10 3 27 -6 12 -18 27 -26 33 -14 10 -14 48 0 42 4 -2 19 12 33
31 27 38 31 46 15 36 -5 -3 -10 -1 -10 4 0 6 5 11 10 11 6 0 10 9 10 19 0 11
4 22 9 26 9 5 11 13 12 63 0 12 4 22 9 22 4 0 6 16 3 36 -6 42 13 61 61 62 21
1 38 10 58 34 15 18 33 39 38 46 6 6 8 12 5 12 -14 0 19 42 41 52 15 7 24 20
24 34 0 13 5 26 11 30 6 4 7 9 2 13 -5 3 -6 35 -3 71 3 36 8 60 12 54 12 -18
121 -3 148 21 19 18 20 33 20 486 0 412 -2 468 -15 463 -8 -4 -15 -1 -15 4 0
6 -9 14 -20 17 -11 4 -17 11 -14 17 4 6 9 7 13 0 7 -11 51 3 51 17 0 8 -24 23
-42 25 -3 1 -9 4 -13 8 -4 4 -13 4 -20 2 -7 -3 -16 -1 -20 5 -8 13 -55 14 -74
2 -15 -9 -43 8 -34 21 2 4 -3 5 -11 2 -13 -5 -16 2 -17 32 -1 52 -7 100 -20
147 -8 32 -7 42 5 56 9 10 16 22 16 27 0 6 9 19 19 31 11 11 24 38 30 59 9 32
8 40 -5 47 -14 8 -14 11 -3 18 11 7 11 9 -3 9 -11 0 -15 6 -11 20 4 14 0 20
-11 20 -14 0 -18 6 -15 26 0 4 -4 10 -10 14 -7 3 -14 33 -16 66 -3 32 -10 79
-16 104 -6 25 -11 55 -12 67 -1 11 -5 19 -9 16 -11 -6 -10 0 7 41 15 35 14 36
-5 36 -14 0 -19 4 -14 12 5 8 2 9 -9 5 -10 -4 -17 -2 -17 4 0 6 -7 8 -16 5
-11 -4 -14 -1 -12 12 2 9 10 16 17 14 9 -2 9 3 1 17 -5 11 -10 32 -10 47 0 15
-7 32 -15 38 -8 6 -17 22 -20 36 -3 14 -9 26 -15 28 -6 2 -7 9 -3 15 19 31 0
109 -22 89 -5 -4 -5 -2 -2 5 4 6 3 22 -2 35 -5 13 -5 33 0 46 7 17 6 21 -4 15
-6 -4 -4 5 6 20 10 15 13 27 7 27 -6 0 -9 4 -6 9 3 5 -1 14 -10 21 -8 7 -13
19 -10 26 3 8 -1 20 -9 28 -8 8 -15 22 -15 31 0 8 -11 21 -25 27 -14 6 -25 15
-25 20 0 6 -6 8 -12 5 -7 -2 -21 5 -30 15 -9 11 -38 25 -65 32 -45 11 -48 14
-47 44 1 17 -2 29 -7 26 -10 -6 -31 31 -22 40 3 3 -1 6 -10 6 -10 0 -17 5 -17
11 0 7 -12 23 -27 37 -20 18 -37 25 -65 24 -20 -1 -40 2 -43 8 -3 5 -12 7 -20
3 -17 -6 -68 24 -61 36 5 8 1 9 -47 14 -16 2 -33 10 -38 18 -5 8 -9 10 -9 5 0
-6 -5 -5 -12 2 -17 17 -31 15 -24 -3 3 -8 0 -15 -6 -15 -7 0 -6 -6 2 -16 11
-12 11 -15 -1 -12 -9 2 -13 -4 -11 -18 1 -12 -5 -27 -15 -35 -10 -7 -15 -9
-11 -5 12 14 -11 34 -32 29 -13 -3 -22 1 -26 11 -4 11 -13 15 -28 11 -15 -5
-17 -4 -7 3 10 7 10 11 1 17 -7 4 -17 1 -22 -6 -7 -10 -8 -5 -6 18 3 18 1 30
-4 27 -4 -3 -8 6 -8 20 0 14 -4 26 -9 26 -5 0 -7 -10 -4 -22 4 -19 3 -20 -6
-8 -6 8 -11 21 -11 29 0 8 -7 23 -17 33 -9 11 -11 18 -5 18 7 0 12 -4 12 -10
0 -5 5 -10 11 -10 17 0 -9 29 -41 45 -16 8 -32 10 -40 5 -8 -5 -18 -6 -23 -3
-5 3 -4 9 3 13 9 6 6 10 -9 15 -11 3 -21 11 -21 16 0 13 18 11 22 -3 3 -7 7
-6 11 5 5 13 1 17 -18 17 -18 0 -23 4 -19 15 4 8 10 12 15 9 5 -3 9 0 9 6 0 6
-10 8 -27 4 -22 -6 -25 -4 -19 11 4 12 0 22 -14 32 -11 8 -20 20 -20 27 0 8
-7 17 -16 20 -9 3 -12 11 -8 18 5 8 2 9 -10 5 -23 -9 -61 21 -61 48 0 11 9 25
20 30 29 15 44 51 35 89 -12 52 34 90 80 66 15 -8 20 -8 20 2 0 9 2 10 8 2 5
-9 11 -8 20 2 10 12 10 14 -3 14 -8 0 -15 4 -15 8 0 5 -19 19 -41 31 -34 19
-43 21 -50 10 -6 -10 -9 -11 -9 -1 0 6 -7 12 -15 12 -8 0 -15 5 -15 10 0 6 5
10 11 10 5 0 8 4 4 9 -9 15 -87 24 -125 14 -28 -7 -38 -6 -57 10 -12 11 -20
24 -17 28 8 13 -45 6 -66 -8z m-4070 -553 c0 -5 -5 -10 -11 -10 -5 0 -7 5 -4
10 3 6 8 10 11 10 2 0 4 -4 4 -10z m1737 -36 c-3 -3 -12 -4 -19 -1 -8 3 -5 6
6 6 11 1 17 -2 13 -5z m1119 -166 c4 -5 2 -8 -4 -8 -6 0 -9 -6 -6 -14 10 -26
-31 -24 -50 2 -11 14 -14 22 -8 18 7 -4 12 -3 12 1 0 11 45 11 56 1z m-90 -73
c-3 -22 -46 -32 -46 -10 0 8 9 15 20 15 31 0 24 20 -7 21 l-28 1 25 7 c28 8
40 -4 36 -34z m-62 -20 c3 -8 1 -15 -3 -15 -5 0 -11 7 -15 15 -3 8 -1 15 3 15
5 0 11 -7 15 -15z m-54 -15 c0 -5 -4 -10 -10 -10 -5 0 -10 5 -10 10 0 6 5 10
10 10 6 0 10 -4 10 -10z m-1088 -435 c124 -6 264 -24 391 -51 l77 -17 -5 -31
c-2 -17 -12 -92 -21 -166 -9 -74 -18 -137 -20 -139 -2 -2 -115 2 -251 9 -336
17 -578 10 -658 -19 -170 -61 -255 -178 -300 -413 -24 -127 -38 -388 -31 -586
13 -390 62 -570 185 -685 111 -104 196 -121 571 -114 157 3 340 11 408 18 67
6 125 10 127 7 7 -7 46 -321 40 -326 -9 -9 -194 -52 -290 -68 -134 -21 -597
-31 -720 -15 -432 57 -655 259 -751 681 -43 187 -57 373 -51 675 6 289 19 421
62 592 106 424 358 621 835 653 112 7 158 6 402 -5z m1378 -417 c-1 -350 -7
-510 -26 -625 l-7 -43 135 0 135 0 34 53 c18 28 174 265 346 525 l312 472 246
0 c135 0 245 -3 245 -6 0 -3 -84 -130 -187 -282 -102 -152 -265 -394 -361
-537 -115 -171 -196 -282 -238 -324 -35 -35 -64 -66 -64 -70 0 -3 18 -19 40
-34 22 -16 58 -49 80 -75 34 -41 780 -1185 780 -1197 0 -3 -114 -5 -253 -5
l-253 0 -360 575 -359 574 -139 1 -139 0 7 -42 c21 -124 26 -253 26 -660 l0
-448 -230 0 -230 0 0 1265 0 1265 230 0 230 0 0 -382z m-3396 316 c20 -8 21
-20 2 -27 -11 -4 -13 -1 -9 10 5 13 2 15 -15 11 -12 -4 -20 -2 -16 3 6 11 16
11 38 3z m45 -81 c-5 -28 3 -62 15 -66 10 -4 12 0 9 13 -4 16 -1 18 18 15 23
-5 39 -21 39 -42 0 -17 41 -63 55 -63 7 0 20 -9 30 -20 10 -11 24 -20 32 -20
7 0 16 -7 19 -15 4 -8 15 -15 26 -15 17 0 18 -3 8 -15 -10 -12 -10 -15 3 -15
11 0 14 -5 10 -16 -3 -9 0 -19 6 -24 9 -5 8 -11 -4 -24 -17 -16 -40 -13 -30 5
4 5 1 9 -4 9 -6 0 -11 4 -11 10 0 5 -16 26 -37 46 -20 20 -33 29 -30 21 7 -19
-16 -29 -33 -14 -10 9 -11 9 -6 0 4 -7 2 -13 -3 -13 -6 0 -11 9 -11 20 0 16
-4 18 -22 11 -47 -17 -91 26 -69 67 14 26 2 36 -16 14 -8 -9 -12 -12 -9 -5 3
6 3 18 0 27 -5 13 -9 14 -21 5 -11 -10 -13 -9 -11 2 2 8 9 17 17 20 17 7 26
55 11 64 -5 3 -8 0 -5 -7 4 -9 -3 -13 -20 -13 -14 0 -23 5 -21 10 2 6 9 9 15
8 6 -2 11 1 11 6 0 5 8 12 18 14 9 3 18 5 20 6 1 0 1 -2 1 -6z m-13 -235 c4
-7 3 -8 -4 -4 -7 4 -12 3 -12 -3 0 -6 -8 -7 -17 -4 -17 7 -15 8 24 22 1 1 5
-4 9 -11z m6224 -923 c0 -8 -4 -15 -10 -15 -5 0 -10 7 -10 15 0 8 5 15 10 15
6 0 10 -7 10 -15z m-120 -940 c0 -8 -4 -15 -10 -15 -5 0 -7 7 -4 15 4 8 8 15
10 15 2 0 4 -7 4 -15z m-20 -55 c0 -5 -5 -10 -11 -10 -5 0 -7 5 -4 10 3 6 8
10 11 10 2 0 4 -4 4 -10z m-5128 -227 c20 -26 39 -73 33 -84 -4 -5 -1 -9 4 -9
6 0 10 -3 9 -7 -2 -5 0 -8 3 -8 4 0 16 -8 26 -18 11 -9 23 -14 26 -10 4 3 7 0
7 -9 0 -8 -7 -15 -15 -15 -8 0 -15 6 -15 14 0 7 -4 13 -10 13 -14 0 -12 -13 5
-36 10 -13 14 -15 15 -5 0 8 3 11 7 8 3 -4 12 -2 20 4 8 7 13 8 13 1 0 -5 9
-8 20 -5 11 3 20 0 20 -6 0 -6 11 -11 25 -11 15 0 25 -6 25 -14 0 -8 8 -21 18
-28 11 -7 24 -23 31 -35 6 -13 18 -23 26 -23 9 0 25 -11 37 -25 11 -13 25 -22
30 -19 4 3 8 -1 8 -10 0 -8 4 -16 9 -18 4 -1 5 -12 0 -23 -6 -17 -8 -17 -8 -2
-1 9 -6 17 -12 17 -5 0 -7 -4 -4 -10 6 -10 -14 -4 -53 16 -38 19 -126 -17
-119 -48 1 -6 -4 -13 -12 -16 -8 -2 -11 0 -7 6 3 6 2 13 -3 16 -5 4 -12 -3
-16 -14 -7 -22 -20 -26 -30 -9 -4 6 -14 7 -24 4 -30 -12 -81 -13 -88 -2 -4 6
-8 30 -9 52 -1 22 -5 58 -10 79 -5 26 -4 37 3 33 20 -12 21 33 2 70 -15 29
-16 39 -6 46 8 6 7 7 -5 4 -15 -5 -34 17 -29 36 0 4 -6 21 -14 37 -10 18 -11
31 -5 35 6 4 8 11 5 16 -4 5 1 9 9 9 9 0 16 5 16 10 0 16 26 11 42 -7z m481
-360 c5 -8 17 -11 33 -7 26 7 32 -4 12 -24 -16 -16 -38 -15 -38 2 0 8 -7 16
-15 20 -8 3 -15 1 -15 -3 0 -5 6 -12 13 -14 6 -3 -7 -6 -30 -6 -49 -1 -63 13
-37 38 21 19 64 16 77 -6z m218 -73 c10 0 19 -5 19 -10 0 -12 -50 -2 -65 13
-7 7 -4 8 8 3 10 -3 27 -6 38 -6z m2268 -179 c-15 -5 -22 6 -14 19 6 9 10 9
16 -1 5 -8 4 -15 -2 -18z m-29 3 c0 -8 -4 -12 -10 -9 -5 3 -10 10 -10 16 0 5
5 9 10 9 6 0 10 -7 10 -16z m-31 -24 c3 3 7 -6 9 -20 l3 -25 -16 23 c-21 29
-35 28 -35 -2 0 -31 -25 -53 -43 -37 -8 6 -17 7 -22 3 -4 -4 0 5 9 20 10 14
24 29 32 32 8 3 14 13 14 22 0 15 2 15 21 -2 12 -10 24 -17 28 -14z m-782 -21
c-10 -16 -13 -17 -15 -4 -2 8 -8 13 -13 10 -13 -9 -11 9 3 23 19 19 40 -5 25
-29z"/>
<path d="M5640 5920 c0 -13 41 -50 57 -50 32 0 84 -41 86 -69 2 -25 17 -16 17
10 0 31 -22 50 -114 98 -46 24 -46 24 -46 11z"/>
<path d="M4083 5845 c0 -8 4 -12 9 -9 5 3 6 10 3 15 -9 13 -12 11 -12 -6z"/>
<path d="M5810 5765 c0 -8 5 -15 10 -15 6 0 10 7 10 15 0 8 -4 15 -10 15 -5 0
-10 -7 -10 -15z"/>
<path d="M5795 5741 c2 -14 -1 -21 -11 -21 -8 0 -14 -6 -14 -12 0 -7 -7 -26
-15 -42 -15 -29 -11 -101 5 -91 4 3 13 -1 19 -9 9 -11 9 -15 -1 -20 -7 -3 -3
-3 10 0 15 4 22 1 20 -8 -2 -9 6 -12 26 -9 23 2 28 0 23 -13 -3 -8 -2 -18 3
-21 6 -4 10 4 10 17 0 22 1 22 25 -7 13 -16 24 -25 25 -18 0 19 -41 86 -68
110 -26 22 -34 60 -20 101 5 15 4 21 -2 17 -6 -3 -10 0 -10 8 0 8 -7 20 -15
27 -12 10 -14 8 -10 -9z"/>
<path d="M5663 5531 c0 -11 5 -18 9 -15 4 3 5 11 1 19 -7 21 -12 19 -10 -4z"/>
<path d="M495 5450 c-11 -5 -16 -9 -12 -9 4 -1 -10 -19 -31 -41 -22 -21 -34
-41 -28 -43 6 -2 -4 -7 -22 -11 -39 -9 -49 -28 -33 -63 9 -20 9 -28 0 -34 -10
-6 -10 -11 0 -22 9 -12 9 -16 0 -19 -14 -5 -1 -23 64 -88 30 -30 45 -37 70
-35 35 2 59 -6 97 -32 13 -10 21 -12 16 -5 -4 6 -3 12 2 12 5 0 9 6 9 14 0 8
-6 12 -12 9 -7 -2 -15 6 -18 19 -4 13 -2 24 3 26 13 5 -11 52 -27 52 -7 0 -15
-1 -16 -2 -2 -2 -11 3 -20 10 -16 14 -21 82 -6 82 11 0 -2 43 -19 63 -8 9 -11
17 -6 17 5 0 1 5 -8 11 -10 5 -18 17 -18 25 0 9 5 12 12 8 8 -5 9 -2 4 11 -6
16 -4 16 11 4 10 -7 15 -9 11 -5 -4 5 -3 15 4 23 15 19 -2 33 -27 23z m60
-320 c3 -5 1 -10 -4 -10 -6 0 -11 5 -11 10 0 6 2 10 4 10 3 0 8 -4 11 -10z"/>
<path d="M3570 5355 c-10 -12 -10 -15 3 -15 8 0 17 7 21 15 3 8 2 15 -3 15 -5
0 -14 -7 -21 -15z"/>
<path d="M1192 3729 c2 -6 8 -10 13 -10 5 0 11 4 13 10 2 6 -4 11 -13 11 -9 0
-15 -5 -13 -11z"/>
<path d="M375 2880 c-8 -13 -1 -24 14 -19 6 3 7 10 2 18 -6 10 -10 10 -16 1z"/>
<path d="M2210 1120 c-8 -5 -18 -6 -22 -4 -4 3 -8 0 -8 -7 0 -6 8 -9 18 -7 11
3 19 0 19 -7 0 -7 -9 -12 -19 -10 -10 2 -18 -2 -18 -8 0 -8 -3 -8 -8 -2 -4 6
-14 10 -22 10 -8 0 -18 -4 -22 -10 -4 -6 -8 -1 -8 9 0 19 -1 19 -19 -1 -11
-12 -24 -23 -28 -24 -10 -5 -43 -67 -43 -80 0 -5 10 -4 23 3 12 7 25 11 30 10
4 -1 7 2 7 8 0 6 3 9 8 9 29 -5 52 4 57 22 4 11 9 18 12 15 3 -2 17 0 32 6 14
5 37 12 51 14 43 8 60 15 60 25 0 6 -4 8 -9 4 -5 -3 -12 -1 -16 5 -3 5 -11 10
-16 10 -6 0 -8 -4 -5 -9 4 -5 -3 -7 -15 -4 -13 4 -17 8 -9 13 8 5 8 9 -3 13
-7 3 -20 1 -27 -3z"/>
<path d="M2139 896 c-1 -3 -2 -12 -3 -18 -1 -7 -7 -12 -14 -10 -19 3 -14 -4
12 -21 23 -15 25 -15 41 9 9 14 15 27 13 29 -8 7 -48 16 -49 11z"/>
</g>
</svg>
